<mxfile host="app.diagrams.net" agent="Mozilla/5.0 (Windows NT 10.0; Win64; x64) AppleWebKit/537.36 (KHTML, like Gecko) Chrome/138.0.0.0 Safari/537.36" version="28.0.4">
  <diagram name="Page-1" id="eu0JSfuJIhrvZI9T3s6s">
    <mxGraphModel dx="19140" dy="12180" grid="1" gridSize="10" guides="1" tooltips="1" connect="1" arrows="1" fold="1" page="1" pageScale="1" pageWidth="850" pageHeight="1100" math="0" shadow="0">
      <root>
        <mxCell id="0" />
        <mxCell id="1" parent="0" />
        <mxCell id="DsKD-aixldcRXifvy8ox-3" style="edgeStyle=orthogonalEdgeStyle;rounded=0;orthogonalLoop=1;jettySize=auto;html=1;fontSize=31;" parent="1" source="DsKD-aixldcRXifvy8ox-1" target="DsKD-aixldcRXifvy8ox-2" edge="1">
          <mxGeometry relative="1" as="geometry" />
        </mxCell>
        <mxCell id="DsKD-aixldcRXifvy8ox-1" value="" style="image;html=1;image=img/lib/clip_art/networking/Cloud_128x128.png;fontSize=20;" parent="1" vertex="1">
          <mxGeometry x="175" y="-1380" width="310" height="410" as="geometry" />
        </mxCell>
        <mxCell id="DsKD-aixldcRXifvy8ox-2" value="" style="image;html=1;image=img/lib/clip_art/networking/Router_Icon_128x128.png;fontSize=12;" parent="1" vertex="1">
          <mxGeometry x="195" y="-680" width="270" height="130" as="geometry" />
        </mxCell>
        <mxCell id="DsKD-aixldcRXifvy8ox-4" value="192.18.0.2/30" style="text;strokeColor=none;align=center;fillColor=none;html=1;verticalAlign=middle;whiteSpace=wrap;rounded=0;fontSize=31;" parent="1" vertex="1">
          <mxGeometry x="440" y="-780" width="80" height="30" as="geometry" />
        </mxCell>
        <mxCell id="DsKD-aixldcRXifvy8ox-5" value="" style="image;aspect=fixed;html=1;points=[];align=center;fontSize=12;image=img/lib/azure2/networking/Azure_Firewall_Manager.svg;" parent="1" vertex="1">
          <mxGeometry x="200" y="-180" width="300" height="257.14" as="geometry" />
        </mxCell>
        <mxCell id="DsKD-aixldcRXifvy8ox-7" value="10.204.188.1/30" style="text;strokeColor=none;align=center;fillColor=none;html=1;verticalAlign=middle;whiteSpace=wrap;rounded=0;fontSize=31;" parent="1" vertex="1">
          <mxGeometry x="470" y="-510" width="60" height="30" as="geometry" />
        </mxCell>
        <mxCell id="DsKD-aixldcRXifvy8ox-9" value="10.204.188.2/30" style="text;strokeColor=none;align=center;fillColor=none;html=1;verticalAlign=middle;whiteSpace=wrap;rounded=0;fontSize=31;" parent="1" vertex="1">
          <mxGeometry x="465" y="-270" width="60" height="30" as="geometry" />
        </mxCell>
        <mxCell id="DsKD-aixldcRXifvy8ox-10" style="edgeStyle=orthogonalEdgeStyle;rounded=0;orthogonalLoop=1;jettySize=auto;html=1;entryX=0.429;entryY=-0.167;entryDx=0;entryDy=0;entryPerimeter=0;fontSize=12;" parent="1" source="DsKD-aixldcRXifvy8ox-2" target="DsKD-aixldcRXifvy8ox-5" edge="1">
          <mxGeometry relative="1" as="geometry" />
        </mxCell>
        <mxCell id="DsKD-aixldcRXifvy8ox-12" value="Monitering" style="swimlane;whiteSpace=wrap;html=1;" parent="1" vertex="1">
          <mxGeometry x="-170" y="860" width="500" height="500" as="geometry" />
        </mxCell>
        <mxCell id="DjfUGMtgvZHglrkm8GAz-91" value="" style="image;aspect=fixed;perimeter=ellipsePerimeter;html=1;align=center;shadow=0;dashed=0;spacingTop=3;image=img/lib/active_directory/generic_server.svg;" vertex="1" parent="DsKD-aixldcRXifvy8ox-12">
          <mxGeometry x="382.80999999999995" y="80" width="64.37" height="115" as="geometry" />
        </mxCell>
        <mxCell id="DjfUGMtgvZHglrkm8GAz-92" value="" style="image;aspect=fixed;perimeter=ellipsePerimeter;html=1;align=center;shadow=0;dashed=0;spacingTop=3;image=img/lib/active_directory/generic_server.svg;" vertex="1" parent="DsKD-aixldcRXifvy8ox-12">
          <mxGeometry x="221.80999999999995" y="80" width="64.37" height="115" as="geometry" />
        </mxCell>
        <mxCell id="DjfUGMtgvZHglrkm8GAz-93" value="" style="image;aspect=fixed;perimeter=ellipsePerimeter;html=1;align=center;shadow=0;dashed=0;spacingTop=3;image=img/lib/active_directory/generic_server.svg;" vertex="1" parent="DsKD-aixldcRXifvy8ox-12">
          <mxGeometry x="52.809999999999945" y="80" width="64.37" height="115" as="geometry" />
        </mxCell>
        <mxCell id="DjfUGMtgvZHglrkm8GAz-94" value="" style="image;aspect=fixed;perimeter=ellipsePerimeter;html=1;align=center;shadow=0;dashed=0;spacingTop=3;image=img/lib/active_directory/generic_server.svg;" vertex="1" parent="DsKD-aixldcRXifvy8ox-12">
          <mxGeometry x="122.43999999999994" y="300" width="64.37" height="115" as="geometry" />
        </mxCell>
        <mxCell id="DjfUGMtgvZHglrkm8GAz-96" value="" style="image;aspect=fixed;perimeter=ellipsePerimeter;html=1;align=center;shadow=0;dashed=0;spacingTop=3;image=img/lib/active_directory/generic_server.svg;" vertex="1" parent="DsKD-aixldcRXifvy8ox-12">
          <mxGeometry x="309.99999999999994" y="300" width="64.37" height="115" as="geometry" />
        </mxCell>
        <mxCell id="DjfUGMtgvZHglrkm8GAz-97" value="Grafana" style="text;html=1;align=center;verticalAlign=middle;resizable=0;points=[];autosize=1;strokeColor=none;fillColor=none;fontSize=18;" vertex="1" parent="DsKD-aixldcRXifvy8ox-12">
          <mxGeometry x="40" y="210" width="90" height="40" as="geometry" />
        </mxCell>
        <mxCell id="DjfUGMtgvZHglrkm8GAz-98" value="Node Exporter" style="text;html=1;align=center;verticalAlign=middle;resizable=0;points=[];autosize=1;strokeColor=none;fillColor=none;fontSize=18;" vertex="1" parent="DsKD-aixldcRXifvy8ox-12">
          <mxGeometry x="186.80999999999995" y="210" width="140" height="40" as="geometry" />
        </mxCell>
        <mxCell id="DjfUGMtgvZHglrkm8GAz-99" value="Prometheous" style="text;html=1;align=center;verticalAlign=middle;resizable=0;points=[];autosize=1;strokeColor=none;fillColor=none;fontSize=18;" vertex="1" parent="DsKD-aixldcRXifvy8ox-12">
          <mxGeometry x="80" y="430" width="130" height="40" as="geometry" />
        </mxCell>
        <mxCell id="DjfUGMtgvZHglrkm8GAz-100" value="SYSLOGS" style="text;html=1;align=center;verticalAlign=middle;resizable=0;points=[];autosize=1;strokeColor=none;fillColor=none;fontSize=18;" vertex="1" parent="DsKD-aixldcRXifvy8ox-12">
          <mxGeometry x="286.18" y="430" width="110" height="40" as="geometry" />
        </mxCell>
        <mxCell id="DjfUGMtgvZHglrkm8GAz-102" value="AlertManager" style="text;html=1;align=center;verticalAlign=middle;resizable=0;points=[];autosize=1;strokeColor=none;fillColor=none;fontSize=18;" vertex="1" parent="DsKD-aixldcRXifvy8ox-12">
          <mxGeometry x="349.99999999999983" y="210" width="130" height="40" as="geometry" />
        </mxCell>
        <mxCell id="DsKD-aixldcRXifvy8ox-14" value="Management" style="swimlane;whiteSpace=wrap;html=1;" parent="1" vertex="1">
          <mxGeometry x="1270" y="860" width="500" height="500" as="geometry" />
        </mxCell>
        <mxCell id="DjfUGMtgvZHglrkm8GAz-61" value="" style="image;aspect=fixed;perimeter=ellipsePerimeter;html=1;align=center;shadow=0;dashed=0;spacingTop=3;image=img/lib/active_directory/generic_server.svg;" vertex="1" parent="DsKD-aixldcRXifvy8ox-14">
          <mxGeometry x="380" y="70" width="64.37" height="115" as="geometry" />
        </mxCell>
        <mxCell id="DjfUGMtgvZHglrkm8GAz-59" value="" style="image;aspect=fixed;perimeter=ellipsePerimeter;html=1;align=center;shadow=0;dashed=0;spacingTop=3;image=img/lib/active_directory/generic_server.svg;" vertex="1" parent="DsKD-aixldcRXifvy8ox-14">
          <mxGeometry x="219" y="70" width="64.37" height="115" as="geometry" />
        </mxCell>
        <mxCell id="DjfUGMtgvZHglrkm8GAz-56" value="" style="image;aspect=fixed;perimeter=ellipsePerimeter;html=1;align=center;shadow=0;dashed=0;spacingTop=3;image=img/lib/active_directory/generic_server.svg;" vertex="1" parent="DsKD-aixldcRXifvy8ox-14">
          <mxGeometry x="50" y="70" width="64.37" height="115" as="geometry" />
        </mxCell>
        <mxCell id="DjfUGMtgvZHglrkm8GAz-62" value="" style="image;aspect=fixed;perimeter=ellipsePerimeter;html=1;align=center;shadow=0;dashed=0;spacingTop=3;image=img/lib/active_directory/generic_server.svg;" vertex="1" parent="DsKD-aixldcRXifvy8ox-14">
          <mxGeometry x="50" y="280" width="64.37" height="115" as="geometry" />
        </mxCell>
        <mxCell id="DjfUGMtgvZHglrkm8GAz-60" value="" style="image;aspect=fixed;perimeter=ellipsePerimeter;html=1;align=center;shadow=0;dashed=0;spacingTop=3;image=img/lib/active_directory/generic_server.svg;" vertex="1" parent="DsKD-aixldcRXifvy8ox-14">
          <mxGeometry x="217.81" y="280" width="64.37" height="115" as="geometry" />
        </mxCell>
        <mxCell id="DjfUGMtgvZHglrkm8GAz-57" value="" style="image;aspect=fixed;perimeter=ellipsePerimeter;html=1;align=center;shadow=0;dashed=0;spacingTop=3;image=img/lib/active_directory/generic_server.svg;" vertex="1" parent="DsKD-aixldcRXifvy8ox-14">
          <mxGeometry x="380" y="290" width="64.37" height="115" as="geometry" />
        </mxCell>
        <mxCell id="DjfUGMtgvZHglrkm8GAz-65" value="DHCP" style="text;html=1;align=center;verticalAlign=middle;resizable=0;points=[];autosize=1;strokeColor=none;fillColor=none;fontSize=18;" vertex="1" parent="DsKD-aixldcRXifvy8ox-14">
          <mxGeometry x="47.19" y="200" width="70" height="40" as="geometry" />
        </mxCell>
        <mxCell id="DjfUGMtgvZHglrkm8GAz-67" value="Ansible Server" style="text;html=1;align=center;verticalAlign=middle;resizable=0;points=[];autosize=1;strokeColor=none;fillColor=none;fontSize=18;" vertex="1" parent="DsKD-aixldcRXifvy8ox-14">
          <mxGeometry x="184" y="200" width="140" height="40" as="geometry" />
        </mxCell>
        <mxCell id="DjfUGMtgvZHglrkm8GAz-69" value="Jump Server" style="text;html=1;align=center;verticalAlign=middle;resizable=0;points=[];autosize=1;strokeColor=none;fillColor=none;fontSize=18;" vertex="1" parent="DsKD-aixldcRXifvy8ox-14">
          <mxGeometry x="17.190000000000055" y="420" width="130" height="40" as="geometry" />
        </mxCell>
        <mxCell id="DjfUGMtgvZHglrkm8GAz-68" value="SYSLOGS" style="text;html=1;align=center;verticalAlign=middle;resizable=0;points=[];autosize=1;strokeColor=none;fillColor=none;fontSize=18;" vertex="1" parent="DsKD-aixldcRXifvy8ox-14">
          <mxGeometry x="357.19000000000005" y="200" width="110" height="40" as="geometry" />
        </mxCell>
        <mxCell id="DjfUGMtgvZHglrkm8GAz-71" value="NTP Server" style="text;html=1;align=center;verticalAlign=middle;resizable=0;points=[];autosize=1;strokeColor=none;fillColor=none;fontSize=18;" vertex="1" parent="DsKD-aixldcRXifvy8ox-14">
          <mxGeometry x="187.18000000000006" y="420" width="120" height="40" as="geometry" />
        </mxCell>
        <mxCell id="DjfUGMtgvZHglrkm8GAz-70" value="Data Base" style="text;html=1;align=center;verticalAlign=middle;resizable=0;points=[];autosize=1;strokeColor=none;fillColor=none;fontSize=18;" vertex="1" parent="DsKD-aixldcRXifvy8ox-14">
          <mxGeometry x="354.3699999999999" y="420" width="110" height="40" as="geometry" />
        </mxCell>
        <mxCell id="DsKD-aixldcRXifvy8ox-16" value="Server" style="swimlane;whiteSpace=wrap;html=1;" parent="1" vertex="1">
          <mxGeometry x="1270" y="-30" width="500" height="500" as="geometry" />
        </mxCell>
        <mxCell id="DjfUGMtgvZHglrkm8GAz-119" value="" style="points=[];aspect=fixed;html=1;align=center;shadow=0;dashed=0;fillColor=#FF6A00;strokeColor=none;shape=mxgraph.alibaba_cloud.dns_privatezone_01;" vertex="1" parent="DsKD-aixldcRXifvy8ox-16">
          <mxGeometry x="65.98" y="110" width="91.52" height="90" as="geometry" />
        </mxCell>
        <mxCell id="DjfUGMtgvZHglrkm8GAz-120" value="" style="verticalLabelPosition=bottom;sketch=0;aspect=fixed;html=1;verticalAlign=top;strokeColor=none;align=center;outlineConnect=0;shape=mxgraph.citrix.proxy_server;" vertex="1" parent="DsKD-aixldcRXifvy8ox-16">
          <mxGeometry x="65.98" y="300" width="93.5" height="110" as="geometry" />
        </mxCell>
        <mxCell id="DjfUGMtgvZHglrkm8GAz-123" style="edgeStyle=orthogonalEdgeStyle;rounded=0;orthogonalLoop=1;jettySize=auto;html=1;" edge="1" parent="DsKD-aixldcRXifvy8ox-16" source="DjfUGMtgvZHglrkm8GAz-121">
          <mxGeometry relative="1" as="geometry">
            <mxPoint x="170" y="167.5" as="targetPoint" />
          </mxGeometry>
        </mxCell>
        <mxCell id="DjfUGMtgvZHglrkm8GAz-121" value="" style="image;aspect=fixed;perimeter=ellipsePerimeter;html=1;align=center;shadow=0;dashed=0;spacingTop=3;image=img/lib/active_directory/windows_server_2.svg;" vertex="1" parent="DsKD-aixldcRXifvy8ox-16">
          <mxGeometry x="370" y="110" width="92" height="115" as="geometry" />
        </mxCell>
        <mxCell id="DjfUGMtgvZHglrkm8GAz-124" style="edgeStyle=orthogonalEdgeStyle;rounded=0;orthogonalLoop=1;jettySize=auto;html=1;" edge="1" parent="DsKD-aixldcRXifvy8ox-16" source="DjfUGMtgvZHglrkm8GAz-122">
          <mxGeometry relative="1" as="geometry">
            <mxPoint x="170" y="352.5" as="targetPoint" />
          </mxGeometry>
        </mxCell>
        <mxCell id="DjfUGMtgvZHglrkm8GAz-122" value="" style="image;aspect=fixed;perimeter=ellipsePerimeter;html=1;align=center;shadow=0;dashed=0;spacingTop=3;image=img/lib/active_directory/windows_server_2.svg;" vertex="1" parent="DsKD-aixldcRXifvy8ox-16">
          <mxGeometry x="370" y="295" width="92" height="115" as="geometry" />
        </mxCell>
        <mxCell id="DsKD-aixldcRXifvy8ox-19" value="DMZ&amp;nbsp;" style="swimlane;whiteSpace=wrap;html=1;" parent="1" vertex="1">
          <mxGeometry x="-970" y="850" width="500" height="500" as="geometry" />
        </mxCell>
        <mxCell id="DjfUGMtgvZHglrkm8GAz-128" value="" style="image;aspect=fixed;html=1;points=[];align=center;fontSize=12;image=img/lib/azure2/general/Website_Power.svg;" vertex="1" parent="DsKD-aixldcRXifvy8ox-19">
          <mxGeometry x="30" y="82" width="106" height="106" as="geometry" />
        </mxCell>
        <mxCell id="DjfUGMtgvZHglrkm8GAz-129" value="" style="points=[];aspect=fixed;html=1;align=center;shadow=0;dashed=0;fillColor=#FF6A00;strokeColor=none;shape=mxgraph.alibaba_cloud.enterprise_website;" vertex="1" parent="DsKD-aixldcRXifvy8ox-19">
          <mxGeometry x="360.16" y="318.3" width="117.62" height="91.7" as="geometry" />
        </mxCell>
        <mxCell id="DjfUGMtgvZHglrkm8GAz-130" value="" style="sketch=0;points=[[0.015,0.015,0],[0.985,0.015,0],[0.985,0.985,0],[0.015,0.985,0],[0.25,0,0],[0.5,0,0],[0.75,0,0],[1,0.25,0],[1,0.5,0],[1,0.75,0],[0.75,1,0],[0.5,1,0],[0.25,1,0],[0,0.75,0],[0,0.5,0],[0,0.25,0]];verticalLabelPosition=bottom;html=1;verticalAlign=top;aspect=fixed;align=center;pointerEvents=1;shape=mxgraph.cisco19.rect;prIcon=virtual_private_network;fillColor=#FAFAFA;strokeColor=#005073;" vertex="1" parent="DsKD-aixldcRXifvy8ox-19">
          <mxGeometry x="40" y="310" width="96" height="96" as="geometry" />
        </mxCell>
        <mxCell id="DjfUGMtgvZHglrkm8GAz-131" value="" style="sketch=0;outlineConnect=0;fontColor=#232F3E;gradientColor=none;fillColor=#01A88D;strokeColor=none;dashed=0;verticalLabelPosition=bottom;verticalAlign=top;align=center;html=1;fontSize=12;fontStyle=0;aspect=fixed;shape=mxgraph.aws4.transfer_for_ftp_resource;" vertex="1" parent="DsKD-aixldcRXifvy8ox-19">
          <mxGeometry x="201.28" y="85" width="97.44" height="100" as="geometry" />
        </mxCell>
        <mxCell id="DjfUGMtgvZHglrkm8GAz-132" value="" style="image;aspect=fixed;perimeter=ellipsePerimeter;html=1;align=center;shadow=0;dashed=0;spacingTop=3;image=img/lib/active_directory/windows_server_2.svg;" vertex="1" parent="DsKD-aixldcRXifvy8ox-19">
          <mxGeometry x="370" y="85" width="92" height="115" as="geometry" />
        </mxCell>
        <mxCell id="DjfUGMtgvZHglrkm8GAz-133" value="" style="image;aspect=fixed;perimeter=ellipsePerimeter;html=1;align=center;shadow=0;dashed=0;spacingTop=3;image=img/lib/active_directory/windows_server_2.svg;" vertex="1" parent="DsKD-aixldcRXifvy8ox-19">
          <mxGeometry x="220" y="310" width="92" height="115" as="geometry" />
        </mxCell>
        <mxCell id="DsKD-aixldcRXifvy8ox-20" value="Production" style="swimlane;whiteSpace=wrap;html=1;" parent="1" vertex="1">
          <mxGeometry x="-1180" y="-100" width="740" height="500" as="geometry" />
        </mxCell>
        <mxCell id="DjfUGMtgvZHglrkm8GAz-103" value="" style="image;aspect=fixed;perimeter=ellipsePerimeter;html=1;align=center;shadow=0;dashed=0;spacingTop=3;image=img/lib/active_directory/generic_server.svg;" vertex="1" parent="DsKD-aixldcRXifvy8ox-20">
          <mxGeometry x="387.80999999999995" y="90" width="64.37" height="115" as="geometry" />
        </mxCell>
        <mxCell id="DjfUGMtgvZHglrkm8GAz-104" value="" style="image;aspect=fixed;perimeter=ellipsePerimeter;html=1;align=center;shadow=0;dashed=0;spacingTop=3;image=img/lib/active_directory/generic_server.svg;" vertex="1" parent="DsKD-aixldcRXifvy8ox-20">
          <mxGeometry x="226.80999999999995" y="90" width="64.37" height="115" as="geometry" />
        </mxCell>
        <mxCell id="DjfUGMtgvZHglrkm8GAz-105" value="" style="image;aspect=fixed;perimeter=ellipsePerimeter;html=1;align=center;shadow=0;dashed=0;spacingTop=3;image=img/lib/active_directory/generic_server.svg;" vertex="1" parent="DsKD-aixldcRXifvy8ox-20">
          <mxGeometry x="57.809999999999945" y="90" width="64.37" height="115" as="geometry" />
        </mxCell>
        <mxCell id="DjfUGMtgvZHglrkm8GAz-107" value="" style="image;aspect=fixed;perimeter=ellipsePerimeter;html=1;align=center;shadow=0;dashed=0;spacingTop=3;image=img/lib/active_directory/generic_server.svg;" vertex="1" parent="DsKD-aixldcRXifvy8ox-20">
          <mxGeometry x="222.8099999999999" y="320" width="64.37" height="115" as="geometry" />
        </mxCell>
        <mxCell id="DjfUGMtgvZHglrkm8GAz-108" value="" style="image;aspect=fixed;perimeter=ellipsePerimeter;html=1;align=center;shadow=0;dashed=0;spacingTop=3;image=img/lib/active_directory/generic_server.svg;" vertex="1" parent="DsKD-aixldcRXifvy8ox-20">
          <mxGeometry x="600" y="320" width="64.37" height="115" as="geometry" />
        </mxCell>
        <mxCell id="DjfUGMtgvZHglrkm8GAz-111" value="Github" style="text;html=1;align=center;verticalAlign=middle;resizable=0;points=[];autosize=1;strokeColor=none;fillColor=none;fontSize=18;" vertex="1" parent="DsKD-aixldcRXifvy8ox-20">
          <mxGeometry x="55.31" y="425" width="80" height="40" as="geometry" />
        </mxCell>
        <mxCell id="DjfUGMtgvZHglrkm8GAz-115" value="Application Servers" style="text;html=1;align=center;verticalAlign=middle;resizable=0;points=[];autosize=1;strokeColor=none;fillColor=none;fontSize=20;" vertex="1" parent="DsKD-aixldcRXifvy8ox-20">
          <mxGeometry x="154.99" y="30" width="200" height="40" as="geometry" />
        </mxCell>
        <mxCell id="DjfUGMtgvZHglrkm8GAz-116" value="" style="dashed=0;outlineConnect=0;html=1;align=center;labelPosition=center;verticalLabelPosition=bottom;verticalAlign=top;shape=mxgraph.weblogos.github" vertex="1" parent="DsKD-aixldcRXifvy8ox-20">
          <mxGeometry x="57.809999999999945" y="340" width="75" height="75" as="geometry" />
        </mxCell>
        <mxCell id="DjfUGMtgvZHglrkm8GAz-117" value="" style="image;aspect=fixed;perimeter=ellipsePerimeter;html=1;align=center;shadow=0;dashed=0;spacingTop=3;image=img/lib/active_directory/windows_server_2.svg;" vertex="1" parent="DsKD-aixldcRXifvy8ox-20">
          <mxGeometry x="600" y="100" width="92" height="115" as="geometry" />
        </mxCell>
        <mxCell id="DjfUGMtgvZHglrkm8GAz-118" value="" style="shadow=0;dashed=0;html=1;strokeColor=none;fillColor=#4495D1;labelPosition=center;verticalLabelPosition=bottom;verticalAlign=top;align=center;outlineConnect=0;shape=mxgraph.veeam.windows_linux_server;" vertex="1" parent="DsKD-aixldcRXifvy8ox-20">
          <mxGeometry x="380" y="328.25" width="102.19" height="98.5" as="geometry" />
        </mxCell>
        <mxCell id="DsKD-aixldcRXifvy8ox-13" value="Storage" style="swimlane;whiteSpace=wrap;html=1;" parent="1" vertex="1">
          <mxGeometry x="485" y="850" width="500" height="500" as="geometry" />
        </mxCell>
        <mxCell id="DjfUGMtgvZHglrkm8GAz-72" value="" style="image;aspect=fixed;perimeter=ellipsePerimeter;html=1;align=center;shadow=0;dashed=0;spacingTop=3;image=img/lib/active_directory/generic_server.svg;" vertex="1" parent="DsKD-aixldcRXifvy8ox-13">
          <mxGeometry x="384.2199999999999" y="80" width="64.37" height="115" as="geometry" />
        </mxCell>
        <mxCell id="DjfUGMtgvZHglrkm8GAz-73" value="" style="image;aspect=fixed;perimeter=ellipsePerimeter;html=1;align=center;shadow=0;dashed=0;spacingTop=3;image=img/lib/active_directory/generic_server.svg;" vertex="1" parent="DsKD-aixldcRXifvy8ox-13">
          <mxGeometry x="223.2199999999999" y="80" width="64.37" height="115" as="geometry" />
        </mxCell>
        <mxCell id="DjfUGMtgvZHglrkm8GAz-74" value="" style="image;aspect=fixed;perimeter=ellipsePerimeter;html=1;align=center;shadow=0;dashed=0;spacingTop=3;image=img/lib/active_directory/generic_server.svg;" vertex="1" parent="DsKD-aixldcRXifvy8ox-13">
          <mxGeometry x="54.219999999999914" y="80" width="64.37" height="115" as="geometry" />
        </mxCell>
        <mxCell id="DjfUGMtgvZHglrkm8GAz-75" value="" style="image;aspect=fixed;perimeter=ellipsePerimeter;html=1;align=center;shadow=0;dashed=0;spacingTop=3;image=img/lib/active_directory/generic_server.svg;" vertex="1" parent="DsKD-aixldcRXifvy8ox-13">
          <mxGeometry x="54.219999999999914" y="290" width="64.37" height="115" as="geometry" />
        </mxCell>
        <mxCell id="DjfUGMtgvZHglrkm8GAz-76" value="" style="image;aspect=fixed;perimeter=ellipsePerimeter;html=1;align=center;shadow=0;dashed=0;spacingTop=3;image=img/lib/active_directory/generic_server.svg;" vertex="1" parent="DsKD-aixldcRXifvy8ox-13">
          <mxGeometry x="222.02999999999986" y="290" width="64.37" height="115" as="geometry" />
        </mxCell>
        <mxCell id="DjfUGMtgvZHglrkm8GAz-77" value="" style="image;aspect=fixed;perimeter=ellipsePerimeter;html=1;align=center;shadow=0;dashed=0;spacingTop=3;image=img/lib/active_directory/generic_server.svg;" vertex="1" parent="DsKD-aixldcRXifvy8ox-13">
          <mxGeometry x="384.2199999999999" y="300" width="64.37" height="115" as="geometry" />
        </mxCell>
        <mxCell id="DjfUGMtgvZHglrkm8GAz-48" style="edgeStyle=orthogonalEdgeStyle;rounded=0;orthogonalLoop=1;jettySize=auto;html=1;entryX=0.5;entryY=0;entryDx=0;entryDy=0;" edge="1" parent="1" source="DjfUGMtgvZHglrkm8GAz-22" target="DsKD-aixldcRXifvy8ox-19">
          <mxGeometry relative="1" as="geometry" />
        </mxCell>
        <mxCell id="DjfUGMtgvZHglrkm8GAz-22" value="" style="sketch=0;points=[[0.015,0.015,0],[0.985,0.015,0],[0.985,0.985,0],[0.015,0.985,0],[0.25,0,0],[0.5,0,0],[0.75,0,0],[1,0.25,0],[1,0.5,0],[1,0.75,0],[0.75,1,0],[0.5,1,0],[0.25,1,0],[0,0.75,0],[0,0.5,0],[0,0.25,0]];verticalLabelPosition=bottom;html=1;verticalAlign=top;aspect=fixed;align=center;pointerEvents=1;shape=mxgraph.cisco19.rect;prIcon=l2_switch;fillColor=#FAFAFA;strokeColor=#005073;" vertex="1" parent="1">
          <mxGeometry x="-415" y="600" width="50" height="50" as="geometry" />
        </mxCell>
        <mxCell id="DjfUGMtgvZHglrkm8GAz-46" style="edgeStyle=orthogonalEdgeStyle;rounded=0;orthogonalLoop=1;jettySize=auto;html=1;entryX=0.5;entryY=0;entryDx=0;entryDy=0;" edge="1" parent="1" source="DjfUGMtgvZHglrkm8GAz-23" target="DsKD-aixldcRXifvy8ox-12">
          <mxGeometry relative="1" as="geometry" />
        </mxCell>
        <mxCell id="DjfUGMtgvZHglrkm8GAz-23" value="" style="sketch=0;points=[[0.015,0.015,0],[0.985,0.015,0],[0.985,0.985,0],[0.015,0.985,0],[0.25,0,0],[0.5,0,0],[0.75,0,0],[1,0.25,0],[1,0.5,0],[1,0.75,0],[0.75,1,0],[0.5,1,0],[0.25,1,0],[0,0.75,0],[0,0.5,0],[0,0.25,0]];verticalLabelPosition=bottom;html=1;verticalAlign=top;aspect=fixed;align=center;pointerEvents=1;shape=mxgraph.cisco19.rect;prIcon=l2_switch;fillColor=#FAFAFA;strokeColor=#005073;" vertex="1" parent="1">
          <mxGeometry x="100" y="590" width="50" height="50" as="geometry" />
        </mxCell>
        <mxCell id="DjfUGMtgvZHglrkm8GAz-52" style="edgeStyle=orthogonalEdgeStyle;rounded=0;orthogonalLoop=1;jettySize=auto;html=1;entryX=0;entryY=0.5;entryDx=0;entryDy=0;" edge="1" parent="1" source="DjfUGMtgvZHglrkm8GAz-24" target="DsKD-aixldcRXifvy8ox-16">
          <mxGeometry relative="1" as="geometry" />
        </mxCell>
        <mxCell id="DjfUGMtgvZHglrkm8GAz-24" value="" style="sketch=0;points=[[0.015,0.015,0],[0.985,0.015,0],[0.985,0.985,0],[0.015,0.985,0],[0.25,0,0],[0.5,0,0],[0.75,0,0],[1,0.25,0],[1,0.5,0],[1,0.75,0],[0.75,1,0],[0.5,1,0],[0.25,1,0],[0,0.75,0],[0,0.5,0],[0,0.25,0]];verticalLabelPosition=bottom;html=1;verticalAlign=top;aspect=fixed;align=center;pointerEvents=1;shape=mxgraph.cisco19.rect;prIcon=l2_switch;fillColor=#FAFAFA;strokeColor=#005073;" vertex="1" parent="1">
          <mxGeometry x="920" y="280" width="50" height="50" as="geometry" />
        </mxCell>
        <mxCell id="DjfUGMtgvZHglrkm8GAz-45" style="edgeStyle=orthogonalEdgeStyle;rounded=0;orthogonalLoop=1;jettySize=auto;html=1;entryX=0.5;entryY=0;entryDx=0;entryDy=0;" edge="1" parent="1" source="DjfUGMtgvZHglrkm8GAz-25" target="DsKD-aixldcRXifvy8ox-13">
          <mxGeometry relative="1" as="geometry" />
        </mxCell>
        <mxCell id="DjfUGMtgvZHglrkm8GAz-25" value="" style="sketch=0;points=[[0.015,0.015,0],[0.985,0.015,0],[0.985,0.985,0],[0.015,0.985,0],[0.25,0,0],[0.5,0,0],[0.75,0,0],[1,0.25,0],[1,0.5,0],[1,0.75,0],[0.75,1,0],[0.5,1,0],[0.25,1,0],[0,0.75,0],[0,0.5,0],[0,0.25,0]];verticalLabelPosition=bottom;html=1;verticalAlign=top;aspect=fixed;align=center;pointerEvents=1;shape=mxgraph.cisco19.rect;prIcon=l2_switch;fillColor=#FAFAFA;strokeColor=#005073;" vertex="1" parent="1">
          <mxGeometry x="710" y="590" width="50" height="50" as="geometry" />
        </mxCell>
        <mxCell id="DjfUGMtgvZHglrkm8GAz-44" style="edgeStyle=orthogonalEdgeStyle;rounded=0;orthogonalLoop=1;jettySize=auto;html=1;entryX=0.5;entryY=0;entryDx=0;entryDy=0;" edge="1" parent="1" source="DjfUGMtgvZHglrkm8GAz-26" target="DsKD-aixldcRXifvy8ox-14">
          <mxGeometry relative="1" as="geometry" />
        </mxCell>
        <mxCell id="DjfUGMtgvZHglrkm8GAz-26" value="" style="sketch=0;points=[[0.015,0.015,0],[0.985,0.015,0],[0.985,0.985,0],[0.015,0.985,0],[0.25,0,0],[0.5,0,0],[0.75,0,0],[1,0.25,0],[1,0.5,0],[1,0.75,0],[0.75,1,0],[0.5,1,0],[0.25,1,0],[0,0.75,0],[0,0.5,0],[0,0.25,0]];verticalLabelPosition=bottom;html=1;verticalAlign=top;aspect=fixed;align=center;pointerEvents=1;shape=mxgraph.cisco19.rect;prIcon=l2_switch;fillColor=#FAFAFA;strokeColor=#005073;" vertex="1" parent="1">
          <mxGeometry x="1070" y="600" width="50" height="50" as="geometry" />
        </mxCell>
        <mxCell id="DjfUGMtgvZHglrkm8GAz-42" style="edgeStyle=orthogonalEdgeStyle;rounded=0;orthogonalLoop=1;jettySize=auto;html=1;entryX=1;entryY=0.5;entryDx=0;entryDy=0;" edge="1" parent="1" source="DjfUGMtgvZHglrkm8GAz-27" target="DsKD-aixldcRXifvy8ox-20">
          <mxGeometry relative="1" as="geometry" />
        </mxCell>
        <mxCell id="DjfUGMtgvZHglrkm8GAz-27" value="" style="sketch=0;points=[[0.015,0.015,0],[0.985,0.015,0],[0.985,0.985,0],[0.015,0.985,0],[0.25,0,0],[0.5,0,0],[0.75,0,0],[1,0.25,0],[1,0.5,0],[1,0.75,0],[0.75,1,0],[0.5,1,0],[0.25,1,0],[0,0.75,0],[0,0.5,0],[0,0.25,0]];verticalLabelPosition=bottom;html=1;verticalAlign=top;aspect=fixed;align=center;pointerEvents=1;shape=mxgraph.cisco19.rect;prIcon=l2_switch;fillColor=#FAFAFA;strokeColor=#005073;" vertex="1" parent="1">
          <mxGeometry x="-150" y="290" width="50" height="50" as="geometry" />
        </mxCell>
        <mxCell id="DjfUGMtgvZHglrkm8GAz-33" style="edgeStyle=orthogonalEdgeStyle;rounded=0;orthogonalLoop=1;jettySize=auto;html=1;entryX=1;entryY=0.25;entryDx=0;entryDy=0;entryPerimeter=0;" edge="1" parent="1" source="DsKD-aixldcRXifvy8ox-5" target="DjfUGMtgvZHglrkm8GAz-27">
          <mxGeometry relative="1" as="geometry" />
        </mxCell>
        <mxCell id="DjfUGMtgvZHglrkm8GAz-34" style="edgeStyle=orthogonalEdgeStyle;rounded=0;orthogonalLoop=1;jettySize=auto;html=1;entryX=0;entryY=0.5;entryDx=0;entryDy=0;entryPerimeter=0;" edge="1" parent="1" source="DsKD-aixldcRXifvy8ox-5" target="DjfUGMtgvZHglrkm8GAz-24">
          <mxGeometry relative="1" as="geometry" />
        </mxCell>
        <mxCell id="DjfUGMtgvZHglrkm8GAz-35" style="edgeStyle=orthogonalEdgeStyle;rounded=0;orthogonalLoop=1;jettySize=auto;html=1;entryX=0.5;entryY=0;entryDx=0;entryDy=0;entryPerimeter=0;" edge="1" parent="1" source="DsKD-aixldcRXifvy8ox-5" target="DjfUGMtgvZHglrkm8GAz-22">
          <mxGeometry relative="1" as="geometry">
            <Array as="points">
              <mxPoint x="230" y="470" />
              <mxPoint x="-390" y="470" />
            </Array>
          </mxGeometry>
        </mxCell>
        <mxCell id="DjfUGMtgvZHglrkm8GAz-36" style="edgeStyle=orthogonalEdgeStyle;rounded=0;orthogonalLoop=1;jettySize=auto;html=1;entryX=0.5;entryY=0;entryDx=0;entryDy=0;entryPerimeter=0;" edge="1" parent="1" source="DsKD-aixldcRXifvy8ox-5" target="DjfUGMtgvZHglrkm8GAz-26">
          <mxGeometry relative="1" as="geometry">
            <mxPoint x="620" y="350" as="sourcePoint" />
            <Array as="points">
              <mxPoint x="620" y="-52" />
              <mxPoint x="620" y="470" />
              <mxPoint x="1090" y="470" />
              <mxPoint x="1090" y="600" />
            </Array>
          </mxGeometry>
        </mxCell>
        <mxCell id="DjfUGMtgvZHglrkm8GAz-39" style="edgeStyle=orthogonalEdgeStyle;rounded=0;orthogonalLoop=1;jettySize=auto;html=1;entryX=0.25;entryY=0;entryDx=0;entryDy=0;entryPerimeter=0;" edge="1" parent="1" source="DsKD-aixldcRXifvy8ox-5" target="DjfUGMtgvZHglrkm8GAz-25">
          <mxGeometry relative="1" as="geometry">
            <Array as="points">
              <mxPoint x="425" y="410" />
              <mxPoint x="573" y="410" />
            </Array>
          </mxGeometry>
        </mxCell>
        <mxCell id="DjfUGMtgvZHglrkm8GAz-40" style="edgeStyle=orthogonalEdgeStyle;rounded=0;orthogonalLoop=1;jettySize=auto;html=1;entryX=0.5;entryY=0;entryDx=0;entryDy=0;entryPerimeter=0;" edge="1" parent="1" source="DsKD-aixldcRXifvy8ox-5" target="DjfUGMtgvZHglrkm8GAz-23">
          <mxGeometry relative="1" as="geometry">
            <mxPoint x="125" y="550" as="targetPoint" />
            <Array as="points">
              <mxPoint x="425" y="410" />
              <mxPoint x="290" y="410" />
              <mxPoint x="290" y="590" />
            </Array>
          </mxGeometry>
        </mxCell>
      </root>
    </mxGraphModel>
  </diagram>
</mxfile>
